<svg width="67" height="52" viewBox="0 0 67 52" fill="none" xmlns="http://www.w3.org/2000/svg">
<path d="M13.3044 39.2695C29.0322 47.075 38.4688 47.075 54.1966 39.2695" stroke="white" stroke-width="3" stroke-linecap="round" stroke-linejoin="round"/>
<path d="M44.7599 43.9523L47.9055 50.1967C47.9055 50.1967 61.0266 46.0495 65.2061 39.269C65.2061 36.1468 66.8735 13.8337 55.7694 6.48602C51.0511 3.36383 43.1872 1.80273 43.1872 1.80273L40.0416 8.04711H33.7505" stroke="white" stroke-width="3" stroke-linecap="round" stroke-linejoin="round"/>
<path d="M22.8301 43.9523L19.6846 50.1967C19.6846 50.1967 6.5634 46.0495 2.38399 39.269C2.38399 36.1468 0.716561 13.8337 11.8207 6.48602C16.539 3.36383 24.4029 1.80273 24.4029 1.80273L27.5484 8.04711H33.8395" stroke="white" stroke-width="3" stroke-linecap="round" stroke-linejoin="round"/>
<path d="M22.7411 33.0249C20.1352 33.0249 18.0228 30.2293 18.0228 26.7805C18.0228 23.3317 20.1352 20.5361 22.7411 20.5361C25.347 20.5361 27.4594 23.3317 27.4594 26.7805C27.4594 30.2293 25.347 33.0249 22.7411 33.0249Z" stroke="white" stroke-width="3" stroke-linecap="round" stroke-linejoin="round"/>
<path d="M44.76 33.0249C42.1542 33.0249 40.0416 30.2293 40.0416 26.7805C40.0416 23.3317 42.1542 20.5361 44.76 20.5361C47.3657 20.5361 49.4783 23.3317 49.4783 26.7805C49.4783 30.2293 47.3657 33.0249 44.76 33.0249Z" stroke="white" stroke-width="3" stroke-linecap="round" stroke-linejoin="round"/>
</svg>
