<svg width="67" height="66" viewBox="0 0 67 66" fill="none" xmlns="http://www.w3.org/2000/svg">
<path d="M33.4317 64.3549C51.0292 64.3549 65.2951 50.3166 65.2951 32.9997C65.2951 15.6827 51.0292 1.64453 33.4317 1.64453C15.834 1.64453 1.5683 15.6827 1.5683 32.9997C1.5683 50.3166 15.834 64.3549 33.4317 64.3549Z" stroke="white" stroke-width="3" stroke-linecap="round" stroke-linejoin="round"/>
<path d="M40.8664 54.9483V49.1068C40.946 48.1364 40.8094 47.1606 40.4649 46.2447C40.1208 45.3288 39.5769 44.4935 38.8698 43.7946C45.5398 43.0822 52.5497 40.66 52.5497 29.5471C52.5491 26.7053 51.4084 23.9725 49.3634 21.9144C50.3317 19.4282 50.2632 16.6801 49.1722 14.2411C49.1722 14.2411 46.6655 13.5287 40.8664 17.2534C35.9977 15.9891 30.8657 15.9891 25.9969 17.2534C20.1978 13.5287 17.6912 14.2411 17.6912 14.2411C16.6001 16.6801 16.5317 19.4282 17.5 21.9144C15.4398 23.9878 14.2978 26.7452 14.3136 29.608C14.3136 40.6397 21.3236 43.0618 27.9936 43.8554C27.2948 44.5475 26.7558 45.3727 26.4118 46.2776C26.0677 47.1822 25.9264 48.1461 25.9969 49.1068V54.9483" stroke="white" stroke-width="3" stroke-linecap="round" stroke-linejoin="round"/>
<path d="M25.9969 50.8795C19.6242 52.8603 14.3137 50.8795 11.1273 44.7734" stroke="white" stroke-width="3" stroke-linecap="round" stroke-linejoin="round"/>
</svg>
