<svg width="60" height="60" viewBox="0 0 60 60" fill="none" xmlns="http://www.w3.org/2000/svg">
<path d="M29.7842 42.3494C36.6402 42.3494 42.1983 36.7557 42.1983 29.8558C42.1983 22.9558 36.6402 17.3623 29.7842 17.3623C22.9281 17.3623 17.3701 22.9558 17.3701 29.8558C17.3701 36.7557 22.9281 42.3494 29.7842 42.3494Z" stroke="white" stroke-width="3" stroke-linecap="round" stroke-linejoin="round"/>
<path d="M1.85248 42.3491V17.362C1.85248 8.73706 8.79996 1.74512 17.3701 1.74512H42.1983C50.7683 1.74512 57.7159 8.73706 57.7159 17.362V42.3491C57.7159 50.974 50.7683 57.966 42.1983 57.966H17.3701C8.79996 57.966 1.85248 50.974 1.85248 42.3491Z" stroke="white" stroke-width="3"/>
<path d="M46.8535 12.7095L46.8846 12.6748" stroke="white" stroke-width="3" stroke-linecap="round" stroke-linejoin="round"/>
</svg>
